<svg width="46" height="46" viewBox="0 0 46 46" fill="none" xmlns="http://www.w3.org/2000/svg">
<circle cx="23" cy="23" r="23" fill="#E4F2FF"/>
<g clip-path="url(#clip0_35_3384)">
<path d="M21.9209 15.2704C18.2496 15.2704 15.2734 18.2466 15.2734 21.9179C15.2734 25.5892 18.2496 28.5653 21.9209 28.5653C25.5922 28.5653 28.5684 25.5892 28.5684 21.9179C28.5644 18.2482 25.5906 15.2744 21.9209 15.2704ZM21.9209 15.9035C23.8762 15.905 25.7085 16.858 26.8325 18.458L26.0411 19.2494C25.8485 19.1328 25.628 19.0705 25.4029 19.0689C24.7036 19.0689 24.1367 19.6358 24.1367 20.3351C24.1379 20.5605 24.1999 20.7813 24.3162 20.9742L22.2435 23.047C21.851 22.8077 21.3577 22.8077 20.9653 23.047L19.5256 21.6073C19.642 21.4144 19.704 21.1936 19.7051 20.9682C19.706 20.2703 19.1409 19.7039 18.443 19.703C17.8658 19.7023 17.3615 20.0927 17.2177 20.6517H16.0433C16.6426 17.884 19.0891 15.9076 21.9209 15.9035ZM26.036 20.3351C26.036 20.6848 25.7526 20.9682 25.4029 20.9682C25.0533 20.9682 24.7698 20.6848 24.7698 20.3351C24.7698 19.9855 25.0533 19.702 25.4029 19.702C25.7526 19.702 26.036 19.9855 26.036 20.3351ZM22.2375 24.1337C22.2375 24.4834 21.954 24.7668 21.6044 24.7668C21.2547 24.7668 20.9713 24.4834 20.9713 24.1337C20.9713 23.784 21.2547 23.5006 21.6044 23.5006C21.954 23.5006 22.2375 23.784 22.2375 24.1337ZM19.072 20.9682C19.072 21.3179 18.7886 21.6013 18.4389 21.6013C18.0892 21.6013 17.8058 21.3179 17.8058 20.9682C17.8058 20.6186 18.0892 20.3351 18.4389 20.3351C18.7886 20.3351 19.072 20.6186 19.072 20.9682ZM24.8432 27.1767C23.9493 27.6731 22.9434 27.9331 21.9209 27.9322C18.6015 27.9345 15.9088 25.2454 15.9065 21.9261C15.9064 21.7118 15.9177 21.4977 15.9404 21.2847H17.2177C17.3616 21.8421 17.8633 22.2322 18.4389 22.2344C18.6642 22.2333 18.8851 22.1713 19.078 22.0549L20.5177 23.4945C20.4013 23.6875 20.3393 23.9083 20.3382 24.1337C20.3382 24.8329 20.9051 25.3998 21.6044 25.3998C22.3037 25.3998 22.8706 24.8329 22.8706 24.1337C22.8695 23.9083 22.8074 23.6875 22.6911 23.4945L24.7638 21.4218C24.9568 21.5382 25.1776 21.6002 25.4029 21.6013C26.1022 21.6013 26.6691 21.0344 26.6691 20.3351C26.668 20.1098 26.606 19.8889 26.4896 19.696L27.1797 19.0062C28.7907 21.9077 27.7446 25.5657 24.8432 27.1767Z" fill="#40A3FF"/>
<path d="M29.8345 17.1699C30.4101 17.1677 30.9118 16.7776 31.0558 16.2203H33V15.5872H31.0558C30.9118 15.0298 30.4101 14.6397 29.8345 14.6375C29.1352 14.6375 28.5683 15.2044 28.5683 15.9037C28.5694 16.1291 28.6314 16.3499 28.7478 16.5428L28.1916 17.099C25.5305 13.632 20.5626 12.9787 17.0956 15.6399C13.6286 18.301 12.9753 23.269 15.6365 26.736C18.1484 30.0086 22.753 30.8024 26.2158 28.5599L27.1711 29.5152L27.6187 29.9628L30.1669 32.511C30.815 33.1591 31.8657 33.1591 32.5138 32.511C33.1619 31.8629 33.1619 30.8122 32.5138 30.1641L29.9656 27.6159L29.518 27.1683L28.5626 26.213C30.2585 23.6009 30.2585 20.2354 28.5626 17.6232L29.1957 16.9901C29.3885 17.1065 29.6093 17.1686 29.8345 17.1699ZM29.8345 15.2706C30.1842 15.2706 30.4676 15.554 30.4676 15.9037C30.4676 16.2534 30.1842 16.5368 29.8345 16.5368C29.4849 16.5368 29.2014 16.2534 29.2014 15.9037C29.2014 15.554 29.4849 15.2706 29.8345 15.2706ZM32.0662 30.6117C32.4716 31.0081 32.479 31.658 32.0827 32.0634C31.6864 32.4688 31.0364 32.4762 30.631 32.0799C30.6254 32.0745 30.62 32.069 30.6145 32.0634L28.0663 29.5152L29.518 28.0635L32.0662 30.6117ZM29.0704 27.6159L27.6187 29.0676L26.7425 28.1914C26.7871 28.1572 26.8289 28.1196 26.8729 28.0844C26.9169 28.0493 26.9679 28.0072 27.015 27.9676C27.0844 27.9094 27.1527 27.8505 27.2198 27.79C27.2543 27.7584 27.2873 27.7267 27.3211 27.6951C27.4509 27.5735 27.5766 27.4479 27.6981 27.3181C27.7298 27.2842 27.7615 27.2513 27.7931 27.2168C27.8536 27.1497 27.9124 27.0813 27.9707 27.012C28.0104 26.9651 28.0493 26.9178 28.0875 26.8698C28.1223 26.8262 28.16 26.7844 28.1942 26.7397L29.0704 27.6159ZM27.8428 26.1456C27.7431 26.2849 27.6402 26.4213 27.5316 26.5527C27.5 26.591 27.4661 26.628 27.4335 26.6657C27.3367 26.7784 27.2366 26.8877 27.1334 26.9936C27.0885 27.04 27.0428 27.0857 26.9964 27.1307C26.8908 27.2339 26.7815 27.3339 26.6684 27.4308C26.6308 27.4624 26.5937 27.4969 26.5554 27.5289C26.424 27.6375 26.2876 27.7403 26.1483 27.8401C22.8714 30.1811 18.3172 29.4225 15.9761 26.1456C13.635 22.8687 14.3937 18.3144 17.6706 15.9734C20.9475 13.6323 25.5017 14.3909 27.8428 17.6678C29.6543 20.2034 29.6543 23.61 27.8428 26.1456Z" fill="#40A3FF"/>
</g>
<defs>
<clipPath id="clip0_35_3384">
<rect width="19" height="19" fill="white" transform="translate(14 14)"/>
</clipPath>
</defs>
</svg>
