<svg width="46" height="46" viewBox="0 0 46 46" fill="none" xmlns="http://www.w3.org/2000/svg">
<circle cx="23" cy="23" r="23" fill="#FFE4E6"/>
<g clip-path="url(#clip0_35_3254)">
<path d="M30.6664 15.334H26.6332C25.7165 13.3284 23.3476 12.4456 21.3419 13.3623C20.4691 13.7612 19.7691 14.4612 19.3702 15.334H15.3337C14.2296 15.3351 13.3348 16.2299 13.3337 17.334V27.6669C13.3348 28.771 14.2296 29.6657 15.3337 29.6668H20.5381L20.0931 31.0001H16.3336C15.7814 31.0001 15.3337 31.4478 15.3337 32C15.3337 32.5523 15.7814 33 16.3336 33H29.6664C30.2187 33 30.6664 32.5523 30.6664 32C30.6664 31.4478 30.2187 31.0001 29.6664 31.0001H25.9069L25.4619 29.6668H30.6664C31.7705 29.6657 32.6652 28.771 32.6663 27.6669V17.334C32.6652 16.2299 31.7704 15.3352 30.6664 15.334ZM23 13.6674C24.8409 13.6674 26.3332 15.1597 26.3332 17.0006C26.3332 18.8415 24.8409 20.3338 23 20.3338C21.1591 20.3338 19.6668 18.8415 19.6668 17.0006C19.6688 15.1606 21.16 13.6695 23 13.6674ZM29.6664 31.6667C29.8505 31.6667 29.9997 31.816 29.9997 32C29.9997 32.1841 29.8505 32.3334 29.6664 32.3334H16.3336C16.1495 32.3334 16.0003 32.1841 16.0003 32C16.0003 31.816 16.1495 31.6667 16.3336 31.6667H29.6664ZM20.7961 31.0001L21.2411 29.6668H24.759L25.2033 31.0001H20.7961ZM31.9997 27.6669C31.9997 28.4032 31.4027 29.0002 30.6664 29.0002H15.3337C14.5973 29.0002 14.0004 28.4032 14.0004 27.6669V27.0002H31.9997V27.6669ZM31.9997 26.3336H14.0004V17.334C14.0004 16.5976 14.5973 16.0007 15.3337 16.0007H19.1335C18.8426 17.0964 19.0369 18.2643 19.6668 19.2069V21.4268L18.2542 21.8978C18.0093 21.2078 17.2514 20.8471 16.5615 21.0921C15.8716 21.337 15.5108 22.0948 15.7558 22.7848C16.0007 23.4747 16.7586 23.8354 17.4485 23.5905C17.8947 23.4321 18.2225 23.0477 18.3085 22.5821L20.1055 21.9821C20.2412 21.9369 20.3329 21.8101 20.3335 21.6671V19.9735C20.8091 20.4014 21.3807 20.7085 22.0001 20.8688V22.8221L21.4001 23.2221C20.7729 22.7945 19.918 22.9564 19.4905 23.5835C19.0629 24.2106 19.2248 25.0656 19.8519 25.4931C20.479 25.9207 21.334 25.7588 21.7615 25.1317C22.0461 24.7142 22.0787 24.1743 21.8464 23.7257L22.5183 23.2777C22.611 23.2159 22.6667 23.1118 22.6667 23.0004V20.9835C22.777 20.9928 22.8873 21.0005 23 21.0005C23.1126 21.0005 23.223 20.9928 23.3333 20.9835V22.3338C23.3333 22.4452 23.3889 22.5492 23.4816 22.6111L24.1536 23.0591C24.054 23.2463 24.0013 23.455 23.9999 23.667C23.9977 24.4056 24.5946 25.0061 25.3332 25.0084C26.0717 25.0106 26.6723 24.4137 26.6745 23.6751C26.6768 22.9366 26.0798 22.336 25.3413 22.3338C25.0777 22.333 24.8198 22.4101 24.5999 22.5554L23.9999 22.1554V20.8688C24.6193 20.7085 25.1909 20.4014 25.6665 19.9735V21.3338C25.6665 21.4601 25.7379 21.5757 25.8509 21.6321L27.6885 22.5507C27.8102 23.2751 28.4961 23.7636 29.2204 23.6419C29.9448 23.5201 30.4333 22.8342 30.3116 22.1099C30.1898 21.3855 29.5039 20.897 28.7796 21.0188C28.3197 21.0961 27.9339 21.4086 27.7628 21.8424L26.3332 21.1278V19.2069C26.9637 18.2646 27.1586 17.0966 26.8682 16.0007H30.6663C31.4027 16.0007 31.9996 16.5976 31.9996 17.334V26.3336H31.9997ZM17.6669 22.3338C17.6669 22.7019 17.3685 23.0004 17.0003 23.0004C16.6321 23.0004 16.3336 22.7019 16.3336 22.3338C16.3336 21.9656 16.6321 21.6671 17.0003 21.6671C17.3685 21.6671 17.6669 21.9656 17.6669 22.3338ZM21.3334 24.3337C21.3334 24.7019 21.035 25.0003 20.6668 25.0003C20.2986 25.0003 20.0001 24.7019 20.0001 24.3337C20.0001 23.9655 20.2986 23.667 20.6668 23.667C21.035 23.667 21.3334 23.9655 21.3334 24.3337ZM24.6666 23.667C24.6666 23.2988 24.9651 23.0004 25.3333 23.0004C25.7015 23.0004 25.9999 23.2988 25.9999 23.667C25.9999 24.0352 25.7015 24.3337 25.3333 24.3337C24.9651 24.3337 24.6666 24.0352 24.6666 23.667ZM28.3331 22.3338C28.3331 21.9656 28.6316 21.6671 28.9998 21.6671C29.368 21.6671 29.6664 21.9656 29.6664 22.3338C29.6664 22.7019 29.368 23.0004 28.9998 23.0004C28.6316 23.0004 28.3331 22.7019 28.3331 22.3338Z" fill="#FE3C51"/>
<path d="M23.3334 27.6669H22.6667V28.3335H23.3334V27.6669Z" fill="#FE3C51"/>
<path d="M23.2358 14.4317C23.1056 14.3016 22.8946 14.3016 22.7644 14.4317L21.4312 15.765L21.9025 16.2363L22.6668 15.472V17.6672H23.3334V15.472L24.0977 16.2363L24.569 15.765L23.2358 14.4317Z" fill="#FE3C51"/>
<path d="M24.3332 17.6672V18.3339H21.6666V17.6672H21V18.6672C21 18.8513 21.1492 19.0005 21.3333 19.0005H24.6665C24.8506 19.0005 24.9998 18.8513 24.9998 18.6672V17.6672H24.3332Z" fill="#FE3C51"/>
<path d="M18.0001 18.3339H15.0002V19.0005H18.0001V18.3339Z" fill="#FE3C51"/>
<path d="M17.0002 19.6671H15.0002V20.3338H17.0002V19.6671Z" fill="#FE3C51"/>
<path d="M18.0001 17.0006H16.3335V17.6673H18.0001V17.0006Z" fill="#FE3C51"/>
<path d="M15.6669 17.0006H15.0002V17.6673H15.6669V17.0006Z" fill="#FE3C51"/>
<path d="M15.6669 24.667H15.0002V25.3336H15.6669V24.667Z" fill="#FE3C51"/>
<path d="M17.0001 24.667H16.3335V25.3336H17.0001V24.667Z" fill="#FE3C51"/>
<path d="M18.3336 24.667H17.667V25.3336H18.3336V24.667Z" fill="#FE3C51"/>
<path d="M30.9996 24.667H30.333V25.3336H30.9996V24.667Z" fill="#FE3C51"/>
<path d="M29.6664 24.667H28.9998V25.3336H29.6664V24.667Z" fill="#FE3C51"/>
<path d="M28.3331 24.667H27.6665V25.3336H28.3331V24.667Z" fill="#FE3C51"/>
<path d="M30.9996 18.3339H27.9998V19.0005H30.9996V18.3339Z" fill="#FE3C51"/>
<path d="M29.9997 19.6671H27.9998V20.3338H29.9997V19.6671Z" fill="#FE3C51"/>
<path d="M30.9996 17.0006H29.333V17.6673H30.9996V17.0006Z" fill="#FE3C51"/>
<path d="M28.6664 17.0006H27.9998V17.6673H28.6664V17.0006Z" fill="#FE3C51"/>
</g>
<defs>
<clipPath id="clip0_35_3254">
<rect width="20" height="20" fill="white" transform="translate(13 13)"/>
</clipPath>
</defs>
</svg>
