<svg width="125" height="45" viewBox="0 0 125 45" fill="none" xmlns="http://www.w3.org/2000/svg">
<circle cx="12.5" cy="17.5" r="12.5" fill="white"/>
<path d="M11.7945 21.1052C13.9477 21.1052 15.1252 19.1413 15.1252 17.4382C15.1252 17.3825 15.1242 17.3269 15.1219 17.2717C15.3505 17.0897 15.5491 16.8627 15.7059 16.6043C15.4961 16.707 15.2704 16.776 15.0336 16.8072C15.2753 16.6476 15.4609 16.3952 15.5484 16.0943C15.3222 16.242 15.0717 16.3492 14.805 16.4072C14.5914 16.1567 14.2872 16 13.9505 16C13.304 16 12.7798 16.5772 12.7798 17.2886C12.7798 17.3898 12.79 17.4881 12.8101 17.5825C11.8372 17.5286 10.9744 17.0158 10.3971 16.2359C10.2966 16.4264 10.2386 16.6477 10.2386 16.8838C10.2386 17.3308 10.4452 17.7256 10.7595 17.9565C10.5674 17.95 10.387 17.892 10.2293 17.7954C10.2291 17.8008 10.2291 17.806 10.2291 17.8118C10.2291 18.436 10.6327 18.9571 11.1684 19.0752C11.07 19.1047 10.9665 19.1206 10.8597 19.1206C10.7844 19.1206 10.711 19.1124 10.6396 19.0973C10.7887 19.6094 11.2209 19.982 11.7332 19.9925C11.3326 20.3382 10.8278 20.5442 10.2793 20.5442C10.1849 20.5442 10.0916 20.5382 10 20.5263C10.5181 20.8919 11.1333 21.1053 11.7945 21.1053" fill="#171721"/>
<circle cx="79.5" cy="18.5" r="12.5" fill="white"/>
<path d="M78.1181 17.5625H77V21H78.1181V17.5625Z" fill="#171721"/>
<path d="M81.1638 17.6028C81.1519 17.5991 81.1406 17.595 81.1281 17.5916C81.1131 17.5881 81.0981 17.5853 81.0828 17.5828C81.0234 17.5709 80.9584 17.5625 80.8822 17.5625C80.2303 17.5625 79.8169 18.0366 79.6806 18.2197V17.5625H78.5625V21H79.6806V19.125C79.6806 19.125 80.5256 17.9481 80.8822 18.8125C80.8822 19.5841 80.8822 21 80.8822 21H82V18.6803C82 18.1609 81.6441 17.7281 81.1638 17.6028Z" fill="#171721"/>
<path d="M77.5469 17.0938C77.8489 17.0938 78.0938 16.8489 78.0938 16.5469C78.0938 16.2448 77.8489 16 77.5469 16C77.2448 16 77 16.2448 77 16.5469C77 16.8489 77.2448 17.0938 77.5469 17.0938Z" fill="#171721"/>
<circle cx="112.5" cy="18.5" r="12.5" fill="white"/>
<path d="M112.75 17H111.25C110.56 17 110 17.5598 110 18.25V19.75C110 20.4402 110.56 21 111.25 21H112.75C113.44 21 114 20.4402 114 19.75V18.25C114 17.5598 113.44 17 112.75 17ZM113.625 19.75C113.625 20.2325 113.233 20.625 112.75 20.625H111.25C110.768 20.625 110.375 20.2325 110.375 19.75V18.25C110.375 17.7675 110.768 17.375 111.25 17.375H112.75C113.233 17.375 113.625 17.7675 113.625 18.25V19.75Z" fill="#171721"/>
<path d="M112 18C111.448 18 111 18.4477 111 19C111 19.5523 111.448 20 112 20C112.552 20 113 19.5523 113 19C113 18.4477 112.552 18 112 18ZM112 19.625C111.655 19.625 111.375 19.3445 111.375 19C111.375 18.6553 111.655 18.375 112 18.375C112.345 18.375 112.625 18.6553 112.625 19C112.625 19.3445 112.345 19.625 112 19.625Z" fill="#171721"/>
<path d="M113.075 18.058C113.149 18.058 113.208 17.9983 113.208 17.9248C113.208 17.8512 113.149 17.7915 113.075 17.7915C113.002 17.7915 112.942 17.8512 112.942 17.9248C112.942 17.9983 113.002 18.058 113.075 18.058Z" fill="#171721"/>
<g filter="url(#filter0_d_35_3162)">
<circle cx="46.5" cy="18.5" r="12.5" fill="#FB3E4D"/>
</g>
<path d="M48.1218 16.0012L47.3437 16C46.4696 16 45.9047 16.5796 45.9047 17.4766V18.1574H45.1223C45.0547 18.1574 45 18.2122 45 18.2798V19.2663C45 19.3339 45.0548 19.3886 45.1223 19.3886H45.9047V21.8777C45.9047 21.9453 45.9594 22 46.027 22H47.0477C47.1153 22 47.17 21.9452 47.17 21.8777V19.3886H48.0847C48.1523 19.3886 48.2071 19.3339 48.2071 19.2663L48.2075 18.2798C48.2075 18.2474 48.1945 18.2163 48.1716 18.1933C48.1487 18.1703 48.1175 18.1574 48.085 18.1574H47.17V17.5803C47.17 17.3029 47.2361 17.1621 47.5975 17.1621L48.1216 17.1619C48.1892 17.1619 48.2439 17.1071 48.2439 17.0395V16.1236C48.2439 16.0561 48.1892 16.0014 48.1218 16.0012Z" fill="white"/>
<defs>
<filter id="filter0_d_35_3162" x="28" y="0" width="45" height="45" filterUnits="userSpaceOnUse" color-interpolation-filters="sRGB">
<feFlood flood-opacity="0" result="BackgroundImageFix"/>
<feColorMatrix in="SourceAlpha" type="matrix" values="0 0 0 0 0 0 0 0 0 0 0 0 0 0 0 0 0 0 127 0" result="hardAlpha"/>
<feOffset dx="4" dy="4"/>
<feGaussianBlur stdDeviation="5"/>
<feColorMatrix type="matrix" values="0 0 0 0 0.0901961 0 0 0 0 0.0901961 0 0 0 0 0.129412 0 0 0 0.16 0"/>
<feBlend mode="normal" in2="BackgroundImageFix" result="effect1_dropShadow_35_3162"/>
<feBlend mode="normal" in="SourceGraphic" in2="effect1_dropShadow_35_3162" result="shape"/>
</filter>
</defs>
</svg>
