<svg width="97" height="34" viewBox="0 0 97 34" fill="none" xmlns="http://www.w3.org/2000/svg">
<circle cx="16.5341" cy="16.5341" r="16.0341" stroke="#191C51" stroke-linejoin="round" stroke-dasharray="1.5 1.5"/>
<path d="M21.4641 15.2088C22.1308 15.5937 22.1308 16.556 21.4641 16.9409L15.5081 20.3795C14.8415 20.7644 14.0081 20.2833 14.0081 19.5135L14.0081 12.6362C14.0081 11.8664 14.8415 11.3852 15.5081 11.7701L21.4641 15.2088Z" fill="#191C51"/>
<path d="M50.3053 23L47.0733 12.328H48.9773L51.3453 20.76L53.8413 12.328H55.3613L57.8733 20.744L60.2093 12.328H62.1133L58.8653 23H57.1053L54.5933 14.984L52.0813 23H50.3053ZM65.8162 23.24C65.2722 23.24 64.7495 23.1653 64.2482 23.016C63.7468 22.8667 63.3362 22.6053 63.0162 22.232C62.6962 21.8587 62.5362 21.336 62.5362 20.664C62.5362 19.7787 62.7922 19.1227 63.3042 18.696C63.8268 18.2587 64.5415 18.04 65.4482 18.04C65.9708 18.04 66.4295 18.0933 66.8242 18.2C67.2295 18.3067 67.5708 18.44 67.8482 18.6V17.848C67.8482 17.2827 67.6722 16.872 67.3202 16.616C66.9788 16.3493 66.4988 16.216 65.8802 16.216C65.4215 16.216 64.9522 16.2907 64.4722 16.44C64.0028 16.5787 63.6135 16.776 63.3042 17.032V15.464C63.6028 15.272 64.0348 15.112 64.6002 14.984C65.1655 14.856 65.7575 14.792 66.3762 14.792C66.8775 14.792 67.3682 14.872 67.8482 15.032C68.3388 15.192 68.7388 15.4693 69.0482 15.864C69.3682 16.2587 69.5282 16.792 69.5282 17.464L69.5122 21.304C69.5122 21.8267 69.3468 22.2267 69.0162 22.504C68.6962 22.7813 68.2588 22.9733 67.7042 23.08C67.1495 23.1867 66.5202 23.24 65.8162 23.24ZM64.2002 20.584C64.2002 20.904 64.2908 21.1653 64.4722 21.368C64.6535 21.56 64.8775 21.704 65.1442 21.8C65.4215 21.8853 65.7095 21.928 66.0082 21.928C66.6268 21.928 67.0855 21.8853 67.3842 21.8C67.6935 21.704 67.8482 21.5067 67.8482 21.208V19.656C67.6028 19.5493 67.3255 19.464 67.0162 19.4C66.7175 19.336 66.3975 19.304 66.0562 19.304C64.8188 19.304 64.2002 19.7307 64.2002 20.584ZM74.7525 23.208C74.0165 23.208 73.4405 23.016 73.0245 22.632C72.6085 22.2373 72.4005 21.672 72.4005 20.936V16.36H71.1045V14.968H72.4005V12.728H74.1285V14.968H76.0805V16.36H74.1285V20.6C74.1285 20.9733 74.1925 21.256 74.3205 21.448C74.4592 21.6293 74.7099 21.72 75.0725 21.72C75.4565 21.72 75.7925 21.6347 76.0805 21.464V22.952C75.8885 23.0373 75.6699 23.1013 75.4245 23.144C75.1899 23.1867 74.9659 23.208 74.7525 23.208ZM81.5652 23.16C81.0745 23.16 80.5945 23.0907 80.1252 22.952C79.6558 22.8133 79.2292 22.5893 78.8452 22.28C78.4718 21.96 78.1732 21.5387 77.9492 21.016C77.7252 20.4827 77.6132 19.8213 77.6132 19.032C77.6132 18.2213 77.7198 17.544 77.9332 17C78.1465 16.456 78.4398 16.024 78.8132 15.704C79.1865 15.3733 79.6078 15.1387 80.0772 15C80.5572 14.8613 81.0478 14.792 81.5492 14.792C82.4238 14.792 83.2452 14.952 84.0132 15.272V16.776C83.6505 16.616 83.2878 16.4933 82.9252 16.408C82.5625 16.312 82.1838 16.264 81.7892 16.264C80.9572 16.264 80.3278 16.472 79.9012 16.888C79.4852 17.304 79.2772 17.976 79.2772 18.904C79.2772 19.864 79.4745 20.568 79.8692 21.016C80.2745 21.4533 80.9305 21.672 81.8372 21.672C82.2318 21.672 82.6158 21.624 82.9892 21.528C83.3625 21.4213 83.7092 21.2933 84.0292 21.144V22.648C83.6452 22.8187 83.2505 22.9467 82.8452 23.032C82.4505 23.1173 82.0238 23.16 81.5652 23.16ZM85.9667 23V11.576H87.6467V15.448C88.02 15.2453 88.4093 15.0853 88.8147 14.968C89.22 14.8507 89.62 14.792 90.0147 14.792C90.9533 14.792 91.6947 15.0427 92.2387 15.544C92.7827 16.0453 93.0547 16.872 93.0547 18.024V23H91.3747V18.232C91.3747 16.8987 90.7613 16.232 89.5347 16.232C88.8733 16.232 88.244 16.408 87.6467 16.76L87.6307 23H85.9667Z" fill="#191C51"/>
</svg>
