<svg width="112" height="39" viewBox="0 0 112 39" fill="none" xmlns="http://www.w3.org/2000/svg">
<path d="M19.5 1H111V21C111 30.3888 103.389 38 94 38H19.5C9.28273 38 1 29.7173 1 19.5C1 9.28273 9.28273 1 19.5 1Z" stroke="#191C51" stroke-width="2"/>
<path d="M34.9367 25L31.7047 14.328H33.6087L35.9767 22.76L38.4727 14.328H39.9927L42.5047 22.744L44.8407 14.328H46.7447L43.4967 25H41.7367L39.2247 16.984L36.7127 25H34.9367ZM50.9756 25.24C49.6742 25.24 48.7036 24.872 48.0636 24.136C47.4342 23.4 47.1196 22.3493 47.1196 20.984C47.1196 19.544 47.4449 18.4827 48.0956 17.8C48.7569 17.1173 49.7116 16.776 50.9596 16.776C52.2716 16.776 53.2476 17.144 53.8876 17.88C54.5276 18.6053 54.8476 19.64 54.8476 20.984C54.8476 22.3387 54.5116 23.3893 53.8396 24.136C53.1676 24.872 52.2129 25.24 50.9756 25.24ZM50.9596 23.816C51.7702 23.816 52.3409 23.5547 52.6716 23.032C53.0022 22.5093 53.1676 21.8267 53.1676 20.984C53.1676 20.0667 52.9969 19.3733 52.6556 18.904C52.3142 18.424 51.7489 18.184 50.9596 18.184C50.1489 18.184 49.5836 18.4347 49.2636 18.936C48.9436 19.4267 48.7836 20.1093 48.7836 20.984C48.7836 21.8693 48.9489 22.5627 49.2796 23.064C49.6102 23.5653 50.1702 23.816 50.9596 23.816ZM56.7856 25V17.704C56.9242 17.6187 57.1802 17.5067 57.5536 17.368C57.9269 17.2187 58.3642 17.0853 58.8656 16.968C59.3776 16.8507 59.9002 16.792 60.4336 16.792C60.7002 16.792 60.9189 16.8133 61.0896 16.856C61.2602 16.8987 61.4042 16.9467 61.5216 17V18.344C61.0416 18.2693 60.5189 18.248 59.9536 18.28C59.3882 18.312 58.8922 18.3653 58.4656 18.44V25H56.7856ZM64.8402 25H63.1762V13.928H64.8562V19.976L67.7682 16.968H69.8322L66.1682 20.456L70.2482 25H68.0722L64.8562 21.4L64.8402 25Z" fill="#191C51"/>
<path d="M85.5 18C85.5 17.7239 85.2761 17.5 85 17.5L80.5 17.5C80.2239 17.5 80 17.7239 80 18C80 18.2761 80.2239 18.5 80.5 18.5L84.5 18.5L84.5 22.5C84.5 22.7761 84.7239 23 85 23C85.2761 23 85.5 22.7761 85.5 22.5L85.5 18ZM79.3536 24.3536L85.3536 18.3536L84.6464 17.6464L78.6464 23.6464L79.3536 24.3536Z" fill="#FF3442"/>
</svg>
